# xmcd
#
# Track frame offsets: 
#        150
#        18036
#        32353
#        46745
#        63040
#        77246
#        93710
#        112777
#        130110
#        146316
#        163320
#        181397
#        200671
#        219598
#        236486
#        255628
#        272512
#        289273
#        306195
#        327240
#
# Disc length: 4574 seconds
#
# Revision: 0
# Processed by: cddbd v1.5.2PL0 Copyright (c) Steve Scherf et al.
# Submitted via: ExactAudioCopy v0.99pb3
#
DISCID=1111dc14
DTITLE=Various Artist - ERG Nu Urban Traxx #116
DYEAR=2008
DGENRE=R&B/Rap
TTITLE0=Janet Jackson - Feedback
TTITLE1=Soulja Boy Ft Arab - Yahhh!
TTITLE2=T Pain - Tipsy
TTITLE3=Pop It Off Boyz - Crank Dat Batman
TTITLE4=Bow Wow Ft O'marion - Hey Baby (Jump Off)
TTITLE5=Big Gemini - Hypnotized
TTITLE6=Wu Tang Clan - Take It Back
TTITLE7=Justin Timberlake Ft 50 Cent - Sexy Ladies
TTITLE8=Trey Songz - Last Time
TTITLE9=Tyra B - Givin' Me A Rush
TTITLE10=Lyfe Jennings - Never Never Land
TTITLE11=Scarface Ft Trey Songz /Girl You Know
TTITLE12=Mike Jones Ft Hurricane Chris - Drop and Gimme 50
TTITLE13=Fat Joe Ft J Holiday - I Won't Tell
TTITLE14=Dolla Ft T Pain and Tay Dizm - Who The Fuck Is That
TTITLE15=B.G. Ft T.I. - For A Minute
TTITLE16=Tamia - Almost
TTITLE17=Yo Gotti - Let's Vibe
TTITLE18=DJ Drama Ft Others - 5000 Ones
TTITLE19=Birdman FT Young Jeezy Rick Ross and Lil' Wayne - 100 Million
EXTD=
EXTT0=
EXTT1=
EXTT2=
EXTT3=
EXTT4=
EXTT5=
EXTT6=
EXTT7=
EXTT8=
EXTT9=
EXTT10=
EXTT11=
EXTT12=
EXTT13=
EXTT14=
EXTT15=
EXTT16=
EXTT17=
EXTT18=
EXTT19=
PLAYORDER=
